<svg width="3670" height="1150" viewBox="0 0 3670 1150" fill="none" xmlns="http://www.w3.org/2000/svg">
<path d="M1781.08 575.151C1781.09 548.747 1775.91 522.599 1765.83 498.199C1755.74 473.8 1740.96 451.627 1722.31 432.946C1703.66 414.266 1681.52 399.443 1657.15 389.326C1632.78 379.208 1606.65 373.994 1580.27 373.979C1578.28 373.979 1576.29 373.979 1574.34 373.979V469.252C1576.29 469.252 1578.28 469.071 1580.27 469.071C1608.05 469.584 1634.52 480.988 1653.98 500.829C1673.45 520.671 1684.35 547.364 1684.35 575.169C1684.35 602.973 1673.45 629.667 1653.98 649.508C1634.52 669.349 1608.05 680.753 1580.27 681.266C1578.28 681.266 1576.29 681.266 1574.34 681.266V681.447H1476.61C1448.83 680.934 1422.36 669.53 1402.89 649.689C1383.43 629.848 1372.52 603.154 1372.52 575.349C1372.52 547.545 1383.43 520.851 1402.89 501.01C1422.36 481.169 1448.83 469.765 1476.61 469.252H1574.52L1478.96 374.088H1476.79C1423.47 374.088 1372.34 395.283 1334.64 433.01C1296.94 470.736 1275.76 521.905 1275.76 575.259C1275.76 628.613 1296.94 679.782 1334.64 717.509C1372.34 755.236 1423.47 776.43 1476.79 776.43H1582.58C1635.49 775.802 1686.01 754.311 1723.18 716.624C1760.34 678.938 1781.15 628.099 1781.08 575.151Z" fill="white"/>
<path d="M2315.66 575.151C2315.67 548.747 2310.49 522.599 2300.41 498.199C2290.32 473.8 2275.53 451.627 2256.89 432.946C2238.24 414.266 2216.1 399.443 2191.73 389.326C2167.35 379.208 2141.23 373.994 2114.84 373.979C2112.86 373.979 2110.91 373.979 2108.92 373.979V469.252C2110.91 469.252 2112.86 469.071 2114.84 469.071C2142.63 469.584 2169.09 480.988 2188.56 500.829C2208.02 520.671 2218.93 547.364 2218.93 575.169C2218.93 602.973 2208.02 629.667 2188.56 649.508C2169.09 669.349 2142.63 680.753 2114.84 681.266C2112.86 681.266 2110.91 681.266 2108.92 681.266V681.447H2011.19C1983.41 680.934 1956.94 669.53 1937.47 649.689C1918.01 629.848 1907.1 603.154 1907.1 575.349C1907.1 547.545 1918.01 520.851 1937.47 501.01C1956.94 481.169 1983.41 469.765 2011.19 469.252H2109.07L2013.35 373.979H2011.19C1957.87 373.979 1906.74 395.174 1869.04 432.901C1831.34 470.628 1810.16 521.797 1810.16 575.151C1810.16 628.505 1831.34 679.673 1869.04 717.4C1906.74 755.127 1957.87 776.322 2011.19 776.322H2117.01C2169.93 775.732 2220.47 754.272 2257.67 716.605C2294.86 678.938 2315.7 628.105 2315.66 575.151Z" fill="white"/>
<path d="M1045.1 580.86H950.079V776.357H1045.1V580.86Z" fill="white"/>
<path d="M1140.1 375.062H1045.11H843.68L938.705 469.07H1045.11V580.86H1140.1V469.07H1246.46V375.062H1140.1Z" fill="white"/>
<path d="M3158.03 622.604L3158.31 526.898L2998.24 526.392L2902.17 526.066L2997.95 622.098L3158.03 622.604Z" fill="white"/>
<path d="M3089.62 680.543V680.832H2981.56C2953.59 680.737 2926.8 669.567 2907.04 649.765C2887.28 629.962 2876.15 603.137 2876.09 575.151V575.151V469.252H3158.17V374.196H2781.1V575.151V579.271C2782.19 631.601 2803.63 681.444 2840.87 718.197C2878.11 754.95 2928.21 775.713 2980.51 776.069H3089.59V775.744H3185.69L3089.62 680.543Z" fill="white"/>
<path d="M2439.87 374.413H2344.3V776.322H2439.87V374.413Z" fill="white"/>
<path d="M2645.77 574.317C2677.6 551.434 2703.7 521.475 2722 486.794C2740.31 452.114 2750.33 413.657 2751.27 374.447H2655.67C2654.05 415.226 2636.73 453.796 2607.34 482.089C2577.95 510.382 2538.76 526.205 2497.98 526.247V526.247H2496.03L2439.94 622.134H2499.42C2540.31 622.551 2579.45 638.822 2608.6 667.524C2637.74 696.227 2654.63 735.123 2655.7 776.031H2751.31C2750.66 736.5 2740.78 697.67 2722.45 662.644C2704.13 627.619 2677.87 597.37 2645.77 574.317V574.317Z" fill="white"/>
<path d="M3669.99 380.847C3669.99 378.57 3669.99 376.256 3669.99 373.979H3575.44C3575.44 376.256 3575.69 378.534 3575.69 380.847C3575.69 407.71 3565.43 433.557 3547.02 453.102C3528.6 472.646 3503.42 484.41 3476.62 485.986V485.986H3382.14C3355.3 484.463 3330.07 472.721 3311.61 453.17C3293.16 433.619 3282.88 407.742 3282.88 380.847C3282.88 378.534 3282.88 376.256 3283.14 373.979H3188.51C3188.51 376.256 3188.51 378.57 3188.51 380.847C3188.51 432.787 3208.72 482.686 3244.84 519.979C3280.97 557.272 3330.18 579.029 3382.06 580.644V774.479H3476.55V580.644C3528.41 579.002 3577.59 557.232 3613.7 519.942C3649.8 482.652 3669.99 432.768 3669.99 380.847V380.847Z" fill="white"/>
<path fill-rule="evenodd" clip-rule="evenodd" d="M698.918 352.583C699.388 358.077 699.64 363.679 699.64 369.317V438.206H361.255C360.975 487.709 341.301 535.127 306.459 570.27C271.618 605.413 224.389 625.476 174.924 626.147H0.0422821V365.919C0.987473 316.458 21.2707 269.34 56.5391 234.675C91.8074 200.011 139.25 180.563 188.685 180.506H189.479V266.417H188.685C161.559 266.445 135.541 277.186 116.286 296.305C97.0308 315.425 86.0958 341.377 85.8578 368.521V540.308H172.54C199.663 540.271 225.676 529.527 244.929 510.41C264.182 491.292 275.12 465.345 275.367 438.204H361.218V352.33H612.524C608.57 329.034 596.712 307.814 578.95 292.244C561.187 276.675 538.605 267.707 515.007 266.852H361.218V352.33H275.402L189.551 395.376V309.465L275.402 266.419H361.218V180.001H515.043C561.473 181.174 605.855 199.376 639.755 231.147C673.654 262.918 694.709 306.044 698.918 352.33V352.583ZM0.0105591 781.164C0.0105591 786.802 0.263367 792.368 0.732895 797.898V798.151C4.95036 844.431 26.0088 887.548 59.9074 919.312C93.8061 951.075 138.183 969.272 184.608 970.444H338.361V883.882H424.212L510.064 840.836V754.96L424.212 798.006H338.397V883.448H184.644C161.047 882.608 138.462 873.651 120.697 858.086C102.933 842.521 91.0758 821.302 87.1263 798.006H338.252V712.131H0.0105591V781.164ZM613.795 610.027H527.113C499.984 610.054 473.962 620.794 454.701 639.912C435.44 659.031 424.497 684.983 424.25 712.13H338.398C338.686 662.629 358.364 615.216 393.204 580.075C428.044 544.934 475.266 524.868 524.729 524.187H699.611V784.416C698.656 833.873 678.37 880.987 643.104 915.649C607.837 950.312 560.4 969.763 510.968 969.829H510.174V883.917H510.968C538.094 883.89 564.112 873.149 583.367 854.029C602.622 834.91 613.557 808.957 613.795 781.814V610.027Z" fill="white"/>
</svg>
