<svg width="1040" height="1150" viewBox="0 0 1040 1150" fill="none" xmlns="http://www.w3.org/2000/svg">
<path fill-rule="evenodd" clip-rule="evenodd" d="M868.907 352.583C869.377 358.077 869.63 363.679 869.63 369.317V438.206H531.244C530.965 487.709 511.29 535.127 476.449 570.27C441.607 605.413 394.379 625.476 344.913 626.147H170.032V365.919C170.977 316.458 191.26 269.34 226.529 234.675C261.797 200.011 309.239 180.563 358.674 180.506H359.469V266.417H358.674C331.549 266.445 305.53 277.186 286.275 296.305C267.02 315.425 256.085 341.377 255.847 368.521V540.308H342.53C369.652 540.271 395.665 529.527 414.918 510.41C434.171 491.292 445.109 465.345 445.357 438.204H531.207V352.33H782.514C778.559 329.034 766.702 307.814 748.939 292.244C731.176 276.675 708.594 267.707 684.996 266.852H531.207V352.33H445.392L359.54 395.376V309.465L445.392 266.419H531.207V180.001H685.032C731.463 181.174 775.845 199.376 809.744 231.147C843.644 262.918 864.698 306.044 868.907 352.33V352.583ZM170 781.164C170 786.802 170.253 792.368 170.722 797.898V798.151C174.94 844.431 195.998 887.548 229.897 919.312C263.796 951.075 308.173 969.272 354.597 970.444H508.35V883.882H594.202L680.054 840.836V754.96L594.202 798.006H508.386V883.448H354.633C331.037 882.608 308.452 873.651 290.687 858.086C272.922 842.521 261.065 821.302 257.116 798.006H508.242V712.131H170V781.164ZM783.785 610.027H697.102C669.973 610.054 643.951 620.794 624.69 639.912C605.43 659.031 594.486 684.983 594.239 712.13H508.387C508.676 662.629 528.353 615.216 563.193 580.075C598.033 544.934 645.256 524.868 694.718 524.187H869.6V784.416C868.646 833.873 848.359 880.987 813.093 915.649C777.827 950.312 730.39 969.763 680.958 969.829H680.163V883.917H680.958C708.083 883.89 734.102 873.149 753.357 854.029C772.612 834.91 783.547 808.957 783.785 781.814V610.027Z" fill="white"/>
</svg>
